<svg xmlns="http://www.w3.org/2000/svg" width="180" height="36" viewBox="0 0 360 72" role="img" aria-label="My AI Guy logo">
  <rect width="360" height="72" rx="12" fill="#ffffff"/>
  <g fill="#0B1221" font-family="Segoe UI, Arial, sans-serif" font-size="28" font-weight="700">
    <text x="18" y="46">miaigi</text>
  </g>
  <g transform="translate(270,12)">
    <g fill="#0B5FFF">
      <polygon points="10,0 13,7 20,8 15,13 16,20 10,16 4,20 5,13 0,8 7,7"/>
    </g>
    <g transform="translate(26,0)" fill="#0B5FFF">
      <polygon points="10,0 13,7 20,8 15,13 16,20 10,16 4,20 5,13 0,8 7,7"/>
    </g>
    <g transform="translate(52,0)" fill="#0B5FFF">
      <polygon points="10,0 13,7 20,8 15,13 16,20 10,16 4,20 5,13 0,8 7,7"/>
    </g>
  </g>
</svg>
